<?xml version="1.0" encoding="UTF-8"?>
<!-- Generator: Adobe Illustrator 16.0.0, SVG Export Plug-In . SVG Version: 6.00 Build 0)  -->
<!DOCTYPE svg PUBLIC "-//W3C//DTD SVG 1.1//EN" "http://www.w3.org/Graphics/SVG/1.1/DTD/svg11.dtd">
<svg version="1.1" id="Layer_1" xmlns="http://www.w3.org/2000/svg" xmlns:xlink="http://www.w3.org/1999/xlink" x="0px" y="0px" width="1000px" height="1000px" viewBox="0 0 1000 1000" enable-background="new 0 0 1000 1000" xml:space="preserve">
<g>
	<path fill="#D13839" d="M1000,500c0,276.145-223.855,500-500,500S0,776.145,0,500S223.855,0,500,0S1000,223.855,1000,500"/>
	<polygon fill="#FFFFFF" points="547.276,229.395 214.594,386.551 266.043,623.372 333.903,623.372 322.182,453.966    332.593,450.738 373.399,623.372 443.905,623.372 441.287,417.017 451.704,413.789 487.37,623.372 562.012,623.372 579.617,374.11    590.028,370.882 608.507,623.372 707.199,623.372 741.943,276.755  "/>
	<polygon fill="#FFFFFF" points="490.311,720.323 465.712,656.95 702.951,669.146 692.779,770.605  "/>
</g>
</svg>
